<svg xmlns="http://www.w3.org/2000/svg" width="56" height="69" viewBox="0 0 56 69">
  <metadata><?xpacket begin="﻿" id="W5M0MpCehiHzreSzNTczkc9d"?>
<x:xmpmeta xmlns:x="adobe:ns:meta/" x:xmptk="Adobe XMP Core 5.6-c138 79.159824, 2016/09/14-01:09:01        ">
   <rdf:RDF xmlns:rdf="http://www.w3.org/1999/02/22-rdf-syntax-ns#">
      <rdf:Description rdf:about=""/>
   </rdf:RDF>
</x:xmpmeta>
                                                                                                    
                                                                                                    
                                                                                                    
                                                                                                    
                                                                                                    
                                                                                                    
                                                                                                    
                                                                                                    
                                                                                                    
                                                                                                    
                                                                                                    
                                                                                                    
                                                                                                    
                                                                                                    
                                                                                                    
                                                                                                    
                                                                                                    
                                                                                                    
                                                                                                    
                                                                                                    
                           
<?xpacket end="w"?></metadata>
<defs>
    <style>
      .cls-1 {
        fill: #fff;
        fill-rule: evenodd;
      }
    </style>
  </defs>
  <path id="admin" class="cls-1" d="M526.733,1352.64a4.614,4.614,0,0,0,1.027,2.26c1.013,7.1,7.335,13.14,12.412,12.89,6.458-.32,11.035-7.33,12.064-12.89a5.666,5.666,0,0,0,1.081-2.49c0.273-1.28.57-3.2-.191-4.22-0.046-.05-0.335-0.32-0.387-0.36,0.728-2.64,2.322-7.35-1.651-11.59-2.152-2.29-5.141-3.45-7.843-4.35-7.979-2.69-13.612,1.08-16.211,7.34-0.187.44-1.4,3.25,0.068,8.6a1.373,1.373,0,0,0-.379.36C525.96,1349.21,526.456,1351.37,526.733,1352.64Zm41.261,39.02c-0.222-4.88-.5-12.62-4.732-18.95a9.353,9.353,0,0,0-4.071-2.76s-6.217-1.91-9.083-3.97l-1.306.9,0.145,8.56-7.851,21.12a1.175,1.175,0,0,1-2.2,0l-7.849-21.12s0.146-8.53.144-8.56c0.018,0.07-1.311-.9-1.311-0.9-2.858,2.06-9.08,3.97-9.08,3.97a9.378,9.378,0,0,0-4.071,2.76c-4.232,6.33-4.512,14.07-4.733,18.95-0.154,3.37.549,4.64,1.431,4.99,10.953,4.43,42.174,4.43,53.13,0C567.447,1396.3,568.146,1395.03,567.994,1391.66Zm-27.717-21.14-0.354.01a10.544,10.544,0,0,1-3.424-.62l3.113,4.79-2.793,2.72,2.874,17.58a0.311,0.311,0,0,0,.613,0l2.875-17.58-2.8-2.72,3.066-4.72A13.057,13.057,0,0,1,540.277,1370.52Z" transform="translate(-512 -1331)"/>
</svg>
