<svg id="agree" xmlns="http://www.w3.org/2000/svg" width="49" height="49" viewBox="0 0 49 49">
  <metadata><?xpacket begin="﻿" id="W5M0MpCehiHzreSzNTczkc9d"?>
<x:xmpmeta xmlns:x="adobe:ns:meta/" x:xmptk="Adobe XMP Core 5.6-c138 79.159824, 2016/09/14-01:09:01        ">
   <rdf:RDF xmlns:rdf="http://www.w3.org/1999/02/22-rdf-syntax-ns#">
      <rdf:Description rdf:about=""/>
   </rdf:RDF>
</x:xmpmeta>
                                                                                                    
                                                                                                    
                                                                                                    
                                                                                                    
                                                                                                    
                                                                                                    
                                                                                                    
                                                                                                    
                                                                                                    
                                                                                                    
                                                                                                    
                                                                                                    
                                                                                                    
                                                                                                    
                                                                                                    
                                                                                                    
                                                                                                    
                                                                                                    
                                                                                                    
                                                                                                    
                           
<?xpacket end="w"?></metadata>
<defs>
    <style>
      .cls-1 {
        fill: #614375;
      }

      .cls-2 {
        fill: #f6f6f8;
        fill-rule: evenodd;
      }
    </style>
  </defs>
  <rect id="Rectangle_4_copy" data-name="Rectangle 4 copy" class="cls-1" width="49" height="49" rx="5" ry="5"/>
  <path id="Forma_1_copy_3" data-name="Forma 1 copy 3" class="cls-2" d="M629.167,1147.12c-0.857-.44-1.813.41-2.374,0.91-1.286,1.2-2.374,2.58-3.594,3.84-1.352,1.38-2.6,2.77-3.99,4.12a11.442,11.442,0,0,0-2.176,2.51,43.429,43.429,0,0,0-3.528-3.27c-0.956-.69-2.539-1.19-2.506.47,0.066,2.17,2.078,4.5,3.561,5.98a3.8,3.8,0,0,0,2.407,1.32c1.154,0.06,2.341-1.26,3.034-1.98,1.22-1.26,2.209-2.67,3.33-3.96,1.451-1.7,2.935-3.37,4.352-5.1C628.574,1150.89,631.376,1148.25,629.167,1147.12Zm-16.717,8.46a0.27,0.27,0,0,0-.132.03,1.322,1.322,0,0,1-.363-0.13h0A0.532,0.532,0,0,1,612.45,1155.58Z" transform="translate(-596 -1131)"/>
</svg>
