<svg xmlns="http://www.w3.org/2000/svg" width="53" height="66" viewBox="0 0 53 66">
  <metadata><?xpacket begin="﻿" id="W5M0MpCehiHzreSzNTczkc9d"?>
<x:xmpmeta xmlns:x="adobe:ns:meta/" x:xmptk="Adobe XMP Core 5.6-c138 79.159824, 2016/09/14-01:09:01        ">
   <rdf:RDF xmlns:rdf="http://www.w3.org/1999/02/22-rdf-syntax-ns#">
      <rdf:Description rdf:about=""/>
   </rdf:RDF>
</x:xmpmeta>
                                                                                                    
                                                                                                    
                                                                                                    
                                                                                                    
                                                                                                    
                                                                                                    
                                                                                                    
                                                                                                    
                                                                                                    
                                                                                                    
                                                                                                    
                                                                                                    
                                                                                                    
                                                                                                    
                                                                                                    
                                                                                                    
                                                                                                    
                                                                                                    
                                                                                                    
                                                                                                    
                           
<?xpacket end="w"?></metadata>
<defs>
    <style>
      .cls-1 {
        fill: #474a7f;
        fill-rule: evenodd;
      }
    </style>
  </defs>
  <path id="Data_Incharge" data-name="Data Incharge" class="cls-1" d="M517.275,414h44.452A4.3,4.3,0,0,0,566,409.666V380.44a4.3,4.3,0,0,0-4.274-4.332h-6.385v8.616a6.174,6.174,0,0,1,4.354,5.917v4.706h-3.482v-4.706a2.613,2.613,0,1,0-5.226,0v4.706h-3.482v-4.706a6.175,6.175,0,0,1,4.354-5.917v-8.4a17.36,17.36,0,0,1-24.363.344v9.407a5.656,5.656,0,1,1-3.482,0v-9.964h-6.741A4.3,4.3,0,0,0,513,380.44v29.226A4.3,4.3,0,0,0,517.275,414ZM528.84,375.05a15.7,15.7,0,0,0,1.218,1.058,15.3,15.3,0,0,0,18.885,0,15.7,15.7,0,0,0,1.218-1.058q0.524-.505,1-1.058a15.745,15.745,0,0,0,3.815-10.305,15.477,15.477,0,1,0-30.952,0,15.745,15.745,0,0,0,3.815,10.305Q528.316,374.545,528.84,375.05Zm-5.258,16.474a2.175,2.175,0,1,0,3.563-1.681,2.106,2.106,0,0,0-2.778,0A2.2,2.2,0,0,0,523.582,391.524Z" transform="translate(-513 -348)"/>
</svg>
