<svg xmlns="http://www.w3.org/2000/svg" width="50" height="40" viewBox="0 0 50 40">
  <metadata><?xpacket begin="﻿" id="W5M0MpCehiHzreSzNTczkc9d"?>
<x:xmpmeta xmlns:x="adobe:ns:meta/" x:xmptk="Adobe XMP Core 5.6-c138 79.159824, 2016/09/14-01:09:01        ">
   <rdf:RDF xmlns:rdf="http://www.w3.org/1999/02/22-rdf-syntax-ns#">
      <rdf:Description rdf:about=""/>
   </rdf:RDF>
</x:xmpmeta>
                                                                                                    
                                                                                                    
                                                                                                    
                                                                                                    
                                                                                                    
                                                                                                    
                                                                                                    
                                                                                                    
                                                                                                    
                                                                                                    
                                                                                                    
                                                                                                    
                                                                                                    
                                                                                                    
                                                                                                    
                                                                                                    
                                                                                                    
                                                                                                    
                                                                                                    
                                                                                                    
                           
<?xpacket end="w"?></metadata>
<defs>
    <style>
      .cls-1 {
        fill: #ad2c59;
        fill-rule: evenodd;
      }
    </style>
  </defs>
  <path id="home" class="cls-1" d="M963,120.071l-17.838,14.783a0.45,0.45,0,0,1-.015.093,0.458,0.458,0,0,0-.016.093v14.969a2.022,2.022,0,0,0,1.986,2h11.912V140.03h7.942v11.976h11.913a1.9,1.9,0,0,0,1.395-.593,1.925,1.925,0,0,0,.591-1.4V135.04a0.438,0.438,0,0,0-.032-0.186Zm24.662,11.415-6.793-5.676V113.086a0.974,0.974,0,0,0-.28-0.718,0.96,0.96,0,0,0-.713-0.28H973.92a0.964,0.964,0,0,0-.714.28,0.978,0.978,0,0,0-.279.718v6.081l-7.569-6.362a3.832,3.832,0,0,0-4.715,0l-22.306,18.681a0.9,0.9,0,0,0-.341.67,1.012,1.012,0,0,0,.217.733l1.923,2.308a1.064,1.064,0,0,0,.652.343,1.147,1.147,0,0,0,.745-0.219L963,117.327l21.468,17.994a0.95,0.95,0,0,0,.651.218h0.093a1.058,1.058,0,0,0,.652-0.342l1.923-2.308a1.014,1.014,0,0,0,.217-0.734A0.906,0.906,0,0,0,987.662,131.486Z" transform="translate(-938 -112)"/>
</svg>
