<svg xmlns="http://www.w3.org/2000/svg" width="34" height="46" viewBox="0 0 34 46">
  <metadata><?xpacket begin="﻿" id="W5M0MpCehiHzreSzNTczkc9d"?>
<x:xmpmeta xmlns:x="adobe:ns:meta/" x:xmptk="Adobe XMP Core 5.6-c138 79.159824, 2016/09/14-01:09:01        ">
   <rdf:RDF xmlns:rdf="http://www.w3.org/1999/02/22-rdf-syntax-ns#">
      <rdf:Description rdf:about=""/>
   </rdf:RDF>
</x:xmpmeta>
                                                                                                    
                                                                                                    
                                                                                                    
                                                                                                    
                                                                                                    
                                                                                                    
                                                                                                    
                                                                                                    
                                                                                                    
                                                                                                    
                                                                                                    
                                                                                                    
                                                                                                    
                                                                                                    
                                                                                                    
                                                                                                    
                                                                                                    
                                                                                                    
                                                                                                    
                                                                                                    
                           
<?xpacket end="w"?></metadata>
<defs>
    <style>
      .cls-1 {
        fill: #ad2c59;
        fill-rule: evenodd;
      }
    </style>
  </defs>
  <path id="logout" class="cls-1" d="M977.922,117.139v24.224a2.078,2.078,0,1,0,4.156,0V117.139l2.687,2.7a2.068,2.068,0,0,0,2.939,0,2.1,2.1,0,0,0,0-2.957l-6.234-6.272c-0.048-.049-0.1-0.094-0.151-0.138-0.013-.01-0.027-0.019-0.04-0.03-0.04-.032-0.081-0.063-0.124-0.092l-0.038-.023c-0.044-.029-0.089-0.057-0.136-0.083l-0.029-.013c-0.051-.027-0.1-0.052-0.155-0.074l-0.02-.008c-0.056-.022-0.113-0.043-0.171-0.061l-0.023-.006c-0.057-.017-0.115-0.032-0.174-0.044-0.018,0-.036,0-0.054-0.008a1.466,1.466,0,0,0-.148-0.022A1.771,1.771,0,0,0,980,110a1.8,1.8,0,0,0-.208.011,1.486,1.486,0,0,0-.149.022c-0.017,0-.035,0-0.052.008-0.06.012-.118,0.027-0.176,0.044l-0.021.006c-0.058.018-.115,0.039-0.172,0.062l-0.019.007c-0.053.022-.105,0.048-0.156,0.074l-0.028.013c-0.047.026-.092,0.054-0.137,0.083-0.013.008-.026,0.015-0.037,0.023-0.043.029-.084,0.061-0.124,0.092-0.013.011-.027,0.02-0.04,0.03-0.052.044-.1,0.089-0.151,0.138l-6.234,6.272a2.1,2.1,0,0,0,0,2.957,2.068,2.068,0,0,0,2.939,0ZM997,138.9a17.118,17.118,0,0,0-7.528-14.2,2.07,2.07,0,0,0-2.884.569,2.1,2.1,0,0,0,.566,2.9,12.845,12.845,0,1,1-14.334.018,2.1,2.1,0,0,0,.559-2.9,2.069,2.069,0,0,0-2.885-.562A17.067,17.067,0,1,0,997,138.9Z" transform="translate(-963 -110)"/>
</svg>
