<svg xmlns="http://www.w3.org/2000/svg" width="42" height="58" viewBox="0 0 42 58">
  <metadata><?xpacket begin="﻿" id="W5M0MpCehiHzreSzNTczkc9d"?>
<x:xmpmeta xmlns:x="adobe:ns:meta/" x:xmptk="Adobe XMP Core 5.6-c138 79.159824, 2016/09/14-01:09:01        ">
   <rdf:RDF xmlns:rdf="http://www.w3.org/1999/02/22-rdf-syntax-ns#">
      <rdf:Description rdf:about=""/>
   </rdf:RDF>
</x:xmpmeta>
                                                                                                    
                                                                                                    
                                                                                                    
                                                                                                    
                                                                                                    
                                                                                                    
                                                                                                    
                                                                                                    
                                                                                                    
                                                                                                    
                                                                                                    
                                                                                                    
                                                                                                    
                                                                                                    
                                                                                                    
                                                                                                    
                                                                                                    
                                                                                                    
                                                                                                    
                                                                                                    
                           
<?xpacket end="w"?></metadata>
<defs>
    <style>
      .cls-1 {
        fill: #525252;
        fill-rule: evenodd;
      }
    </style>
  </defs>
  <path id="password" class="cls-1" d="M165,1037.34a5.764,5.764,0,0,0-3.949,9.94v5.19a3.949,3.949,0,1,0,7.9,0v-5.19a5.813,5.813,0,0,0,1.791-4.18A5.754,5.754,0,0,0,165,1037.34Zm2.031,7.92a2.744,2.744,0,0,0-.862,1.98v5.23a1.169,1.169,0,1,1-2.338,0v-5.23a2.747,2.747,0,0,0-.861-1.98A2.96,2.96,0,1,1,167.031,1045.26Zm14.8-15.49H155.119V1018.7a9.881,9.881,0,1,1,19.762,0v5.01a1.39,1.39,0,1,0,2.78,0v-5.01a12.661,12.661,0,1,0-25.322,0v11.07H148.17a4.185,4.185,0,0,0-4.17,4.19v25.86a4.183,4.183,0,0,0,4.17,4.18h33.66a4.183,4.183,0,0,0,4.17-4.18v-25.86A4.185,4.185,0,0,0,181.83,1029.77Zm1.39,30.05a1.39,1.39,0,0,1-1.39,1.39H148.17a1.39,1.39,0,0,1-1.39-1.39v-25.86a1.4,1.4,0,0,1,1.39-1.4h33.66a1.4,1.4,0,0,1,1.39,1.4v25.86h0Z" transform="translate(-144 -1006)"/>
</svg>
